<svg id="svg" version="1.1" xmlns="http://www.w3.org/2000/svg" xmlns:xlink="http://www.w3.org/1999/xlink" width="400" height="400" viewBox="0, 0, 400,400"><g id="svgg"><path id="path0" d="M102.289 236.805 C 101.914 237.242,101.336 237.600,101.004 237.600 C 100.672 237.600,100.445 237.738,100.500 237.908 C 100.555 238.077,100.195 238.651,99.700 239.183 C 98.648 240.314,98.233 266.400,99.267 266.400 C 99.523 266.400,99.614 266.519,99.469 266.664 C 98.828 267.306,102.332 269.921,103.743 269.855 C 104.510 269.819,105.106 269.972,105.068 270.195 C 104.981 270.715,163.132 270.953,163.763 270.434 C 164.003 270.237,164.788 269.984,165.506 269.872 C 166.820 269.667,169.810 267.144,169.320 266.653 C 169.181 266.514,169.307 266.400,169.600 266.400 C 169.893 266.400,170.020 266.287,169.883 266.149 C 169.745 266.011,169.883 265.298,170.189 264.564 C 170.884 262.902,171.090 243.600,170.413 243.600 C 170.186 243.600,170.000 243.409,170.000 243.176 C 170.000 242.943,170.225 242.888,170.500 243.053 C 170.887 243.285,170.895 243.223,170.538 242.777 C 170.283 242.460,169.986 241.627,169.877 240.927 C 169.649 239.469,168.440 237.631,167.696 237.613 C 167.419 237.606,166.886 237.242,166.511 236.805 C 165.843 236.024,165.271 236.010,134.400 236.010 C 103.529 236.010,102.957 236.024,102.289 236.805 " stroke="none" fill="#acccf4" fill-rule="evenodd"></path><path id="path1" d="M75.057 36.600 C 74.727 36.930,74.039 37.204,73.529 37.209 C 71.537 37.228,64.810 42.477,64.163 44.516 C 64.015 44.982,63.648 45.609,63.347 45.910 C 63.046 46.211,62.800 46.727,62.800 47.057 C 62.800 47.387,62.530 47.927,62.200 48.257 C 61.864 48.593,61.594 49.592,61.587 50.529 C 61.580 51.448,61.310 52.549,60.987 52.976 C 60.111 54.135,60.124 308.067,61.000 309.600 C 61.314 310.150,61.578 311.241,61.586 312.024 C 61.594 312.806,61.864 313.796,62.187 314.224 C 62.510 314.651,62.780 315.216,62.787 315.481 C 62.836 317.331,69.610 324.400,71.334 324.400 C 71.646 324.400,72.126 324.670,72.400 325.000 C 72.674 325.330,73.519 325.600,74.278 325.600 C 75.036 325.600,75.927 325.870,76.257 326.200 C 76.786 326.729,85.527 326.800,150.083 326.800 L 223.308 326.800 224.250 327.816 C 224.767 328.374,226.227 330.129,227.494 331.716 C 228.761 333.302,230.545 335.410,231.458 336.400 C 232.372 337.390,233.897 339.190,234.848 340.400 C 235.798 341.610,236.943 342.960,237.393 343.400 C 237.842 343.840,239.591 345.910,241.280 348.000 C 242.970 350.090,244.767 352.252,245.276 352.804 C 245.784 353.356,246.920 354.706,247.799 355.804 C 248.679 356.902,249.762 358.160,250.207 358.600 C 250.651 359.040,252.048 360.698,253.312 362.284 C 254.575 363.871,256.064 365.660,256.621 366.260 C 257.177 366.861,258.120 367.983,258.716 368.755 C 261.315 372.119,266.254 375.581,268.499 375.613 C 268.995 375.620,269.749 375.890,270.176 376.213 C 271.293 377.057,278.896 377.047,279.743 376.200 C 280.073 375.870,280.781 375.600,281.316 375.600 C 282.458 375.600,285.686 373.906,287.795 372.200 C 289.319 370.967,289.475 370.807,292.200 367.677 C 293.080 366.666,294.080 365.550,294.423 365.197 C 294.765 364.844,295.724 363.665,296.553 362.577 C 297.382 361.490,298.635 359.970,299.337 359.200 C 300.039 358.430,301.328 356.900,302.202 355.800 C 303.076 354.700,304.974 352.450,306.420 350.800 C 307.866 349.150,309.668 346.990,310.425 346.000 C 311.181 345.010,312.171 343.840,312.624 343.400 C 313.078 342.960,314.127 341.700,314.955 340.600 C 315.784 339.500,317.135 337.880,317.958 337.000 C 318.781 336.120,320.076 334.590,320.835 333.600 C 322.303 331.685,323.804 329.895,324.822 328.843 C 325.164 328.489,326.058 327.390,326.808 326.400 C 327.558 325.410,328.570 324.215,329.057 323.745 C 329.544 323.276,331.087 321.476,332.485 319.745 C 334.806 316.873,336.342 315.029,337.400 313.846 C 337.620 313.600,338.516 312.499,339.391 311.399 C 340.266 310.300,341.436 308.936,341.991 308.369 C 342.546 307.802,343.342 306.632,343.761 305.769 C 344.179 304.906,344.764 303.722,345.061 303.138 C 345.779 301.724,345.757 297.015,345.026 295.662 C 344.711 295.078,344.345 294.096,344.214 293.480 C 343.920 292.103,339.113 287.200,338.056 287.200 C 337.639 287.200,337.074 286.930,336.800 286.600 C 336.375 286.088,334.265 286.000,322.357 286.000 L 308.412 286.000 308.306 260.500 C 308.195 233.811,308.247 234.645,306.451 230.811 C 305.204 228.150,301.040 224.420,299.280 224.387 C 298.906 224.380,298.251 224.110,297.824 223.787 C 297.208 223.322,295.568 223.200,289.924 223.200 L 282.800 223.200 282.800 158.289 C 282.800 104.433,282.708 93.244,282.260 92.589 C 281.963 92.155,281.589 91.266,281.430 90.614 C 280.853 88.242,277.861 85.018,256.184 63.400 C 234.418 41.693,231.326 38.738,230.087 38.457 C 229.740 38.378,229.206 38.063,228.900 37.757 C 228.593 37.451,227.928 37.200,227.420 37.200 C 226.913 37.200,226.274 36.930,226.000 36.600 C 225.243 35.688,75.969 35.688,75.057 36.600 M217.288 69.467 C 217.375 83.645,217.512 87.771,217.900 87.900 C 218.175 87.992,218.401 88.457,218.403 88.933 C 218.412 92.017,225.403 99.253,229.304 100.216 C 229.911 100.366,230.506 100.649,230.627 100.844 C 230.750 101.043,238.847 101.200,249.024 101.200 L 267.200 101.200 267.200 162.200 L 267.200 223.200 260.300 223.202 C 254.961 223.204,253.141 223.340,252.254 223.802 C 251.624 224.131,250.763 224.400,250.342 224.400 C 249.920 224.400,249.471 224.670,249.345 225.000 C 249.218 225.330,248.877 225.600,248.588 225.600 C 246.923 225.600,243.808 229.698,242.485 233.628 C 241.609 236.229,241.600 236.520,241.600 261.128 L 241.600 286.000 160.800 286.000 C 108.246 286.000,80.000 285.863,80.000 285.608 C 80.000 285.392,79.593 285.113,79.096 284.988 C 76.610 284.364,76.800 293.984,76.800 168.564 L 76.800 54.793 77.866 53.597 C 78.452 52.938,79.228 52.400,79.590 52.400 C 79.951 52.400,80.596 52.136,81.024 51.813 C 81.699 51.302,90.605 51.224,149.488 51.213 L 217.177 51.200 217.288 69.467 M140.100 60.682 C 139.605 60.778,139.200 61.023,139.200 61.228 C 139.200 61.433,138.154 61.600,136.876 61.600 C 135.453 61.600,134.252 61.827,133.776 62.187 C 133.349 62.510,132.527 62.780,131.949 62.787 C 131.371 62.794,130.674 63.070,130.400 63.400 C 130.126 63.730,129.635 64.000,129.309 64.000 C 128.983 64.000,127.916 64.540,126.938 65.200 C 125.960 65.860,125.060 66.400,124.938 66.400 C 123.183 66.400,114.039 77.154,113.987 79.279 C 113.980 79.566,113.710 80.149,113.387 80.576 C 113.064 81.004,112.794 81.724,112.787 82.176 C 112.780 82.629,112.510 83.349,112.187 83.776 C 111.846 84.228,111.600 85.423,111.600 86.631 C 111.600 87.774,111.331 89.224,111.002 89.854 C 110.131 91.526,110.131 107.674,111.002 109.346 C 111.331 109.976,111.600 111.529,111.600 112.797 C 111.600 114.358,111.794 115.263,112.200 115.600 C 112.530 115.874,112.800 116.576,112.800 117.160 C 112.800 117.744,113.042 118.577,113.338 119.011 C 114.655 120.943,114.476 121.377,110.834 125.072 C 107.272 128.686,104.419 132.657,102.836 136.200 C 102.345 137.300,101.776 138.513,101.571 138.895 C 101.367 139.277,101.194 139.907,101.187 140.295 C 101.180 140.683,100.910 141.349,100.587 141.776 C 100.264 142.204,100.000 143.216,100.000 144.027 C 100.000 144.850,99.735 145.722,99.400 146.000 C 98.664 146.610,98.494 168.680,99.214 170.026 C 99.620 170.784,100.538 170.800,143.785 170.800 L 187.942 170.800 188.771 169.746 C 189.860 168.361,190.044 153.861,188.998 151.854 C 188.661 151.209,188.400 149.659,188.400 148.308 C 188.400 146.143,187.669 142.971,186.737 141.095 C 186.545 140.708,186.102 139.538,185.752 138.495 C 184.976 136.177,181.289 129.910,179.578 128.000 C 176.948 125.063,173.865 122.000,173.539 122.000 C 173.036 122.000,173.124 121.295,173.833 119.660 C 174.182 118.857,174.722 117.609,175.033 116.886 C 175.345 116.164,175.606 114.904,175.613 114.086 C 175.620 113.269,175.890 112.251,176.213 111.824 C 177.082 110.674,177.082 88.926,176.213 87.776 C 175.890 87.349,175.614 86.370,175.600 85.600 C 175.504 80.405,167.118 67.952,162.695 66.436 C 162.432 66.346,161.511 65.761,160.648 65.136 C 159.786 64.511,158.792 63.994,158.440 63.987 C 158.088 63.980,157.451 63.710,157.024 63.387 C 156.596 63.064,155.876 62.794,155.424 62.787 C 154.971 62.780,154.251 62.510,153.824 62.187 C 153.372 61.846,152.177 61.600,150.969 61.600 C 149.826 61.600,148.376 61.331,147.746 61.002 C 146.655 60.434,142.331 60.253,140.100 60.682 M244.520 74.800 L 255.733 86.000 246.240 86.000 L 236.747 86.000 235.382 84.959 C 232.929 83.088,232.800 82.468,232.800 72.539 C 232.800 67.622,232.914 63.600,233.054 63.600 C 233.193 63.600,238.353 68.640,244.520 74.800 M148.257 77.400 C 148.587 77.730,149.202 78.000,149.623 78.000 C 152.160 78.000,159.200 84.574,159.200 86.944 C 159.200 87.221,159.464 87.796,159.787 88.224 C 160.656 89.373,160.656 110.627,159.787 111.776 C 159.464 112.204,159.200 112.782,159.200 113.063 C 159.200 115.451,152.218 122.000,149.670 122.000 C 149.276 122.000,148.604 122.264,148.176 122.587 C 147.627 123.003,146.346 123.175,143.800 123.175 C 141.254 123.175,139.973 123.003,139.424 122.587 C 138.996 122.264,138.313 122.000,137.904 122.000 C 135.189 122.000,128.000 114.791,128.000 112.068 C 128.000 111.645,127.730 111.074,127.400 110.800 C 126.520 110.069,126.531 90.589,127.413 89.424 C 127.736 88.996,128.000 88.301,128.000 87.877 C 128.000 85.246,135.297 78.000,137.946 78.000 C 138.399 78.000,139.001 77.737,139.284 77.415 C 140.033 76.566,147.410 76.553,148.257 77.400 M205.029 117.829 C 204.508 118.349,204.400 119.585,204.400 125.000 C 204.400 130.415,204.508 131.651,205.029 132.171 C 205.982 133.125,244.018 133.125,244.971 132.171 C 245.902 131.241,245.902 118.759,244.971 117.829 C 244.018 116.875,205.982 116.875,205.029 117.829 M126.067 134.300 C 126.140 134.465,126.878 134.910,127.706 135.289 C 128.534 135.668,129.794 136.247,130.506 136.575 C 131.218 136.904,132.297 137.289,132.904 137.431 C 133.511 137.572,134.106 137.849,134.227 138.044 C 134.348 138.240,135.406 138.400,136.578 138.400 C 137.750 138.400,139.224 138.669,139.854 138.998 C 140.552 139.362,142.094 139.595,143.800 139.595 C 145.506 139.595,147.048 139.362,147.746 138.998 C 148.376 138.669,149.760 138.400,150.822 138.400 C 151.884 138.400,152.864 138.220,153.000 138.000 C 153.136 137.780,153.540 137.600,153.897 137.600 C 154.797 137.600,160.905 134.815,161.133 134.300 C 162.201 131.897,169.485 140.167,170.999 145.500 C 171.139 145.995,171.422 146.400,171.627 146.400 C 171.832 146.400,172.000 147.086,172.000 147.924 C 172.000 148.761,172.264 149.796,172.587 150.224 C 172.910 150.651,173.180 151.765,173.187 152.700 L 173.200 154.400 143.600 154.400 C 126.680 154.400,114.000 154.248,114.000 154.046 C 114.000 153.851,114.269 153.176,114.598 152.546 C 114.926 151.916,115.196 150.740,115.198 149.932 C 115.199 149.125,115.457 147.955,115.772 147.332 C 116.086 146.710,116.941 144.941,117.672 143.403 C 118.402 141.864,119.405 140.156,119.900 139.607 C 120.395 139.058,120.800 138.448,120.800 138.253 C 120.800 136.966,125.638 133.335,126.067 134.300 M205.722 141.994 C 204.055 142.685,203.750 156.646,205.376 157.833 C 206.573 158.707,224.654 158.658,225.911 157.777 C 227.033 156.991,227.307 144.047,226.233 142.576 C 225.603 141.715,207.627 141.204,205.722 141.994 M98.993 186.900 C 98.871 187.395,98.823 190.770,98.886 194.400 L 99.000 201.000 134.356 201.102 C 160.147 201.177,169.860 201.082,170.256 200.753 C 171.110 200.045,171.035 187.492,170.171 186.629 C 169.610 186.067,165.813 186.000,134.379 186.000 L 99.215 186.000 98.993 186.900 M179.862 186.731 C 178.783 187.924,178.880 200.201,179.974 200.786 C 181.158 201.420,244.485 201.355,245.120 200.720 C 245.455 200.385,245.600 198.231,245.600 193.600 C 245.600 188.969,245.455 186.815,245.120 186.480 C 244.207 185.567,180.695 185.811,179.862 186.731 M99.429 211.029 C 98.617 211.840,98.484 225.524,99.280 226.320 C 100.194 227.234,169.305 226.989,170.138 226.069 C 171.363 224.715,171.100 212.664,169.818 211.382 L 168.836 210.400 134.447 210.400 C 103.717 210.400,99.990 210.467,99.429 211.029 M180.182 211.382 C 178.719 212.844,178.642 225.164,180.089 226.177 C 181.448 227.129,244.019 227.124,244.971 226.171 C 246.036 225.107,245.889 212.289,244.800 211.200 C 244.014 210.414,243.467 210.400,212.582 210.400 L 181.164 210.400 180.182 211.382 M291.600 269.626 C 291.600 289.559,291.739 299.913,292.014 300.426 C 292.413 301.173,293.030 301.200,309.450 301.200 L 326.472 301.200 323.758 304.500 C 322.265 306.315,320.371 308.520,319.547 309.400 C 318.724 310.280,317.370 311.900,316.539 313.000 C 315.708 314.100,314.450 315.630,313.745 316.400 C 312.075 318.223,311.262 319.178,309.800 321.033 C 309.140 321.870,308.086 323.106,307.458 323.778 C 306.830 324.450,305.593 325.900,304.709 327.000 C 303.825 328.100,302.095 330.141,300.864 331.535 C 299.633 332.929,298.361 334.459,298.036 334.935 C 297.712 335.411,297.346 335.890,297.223 336.000 C 296.779 336.396,292.138 341.826,291.285 342.946 C 290.805 343.577,289.284 345.354,287.906 346.895 C 286.528 348.436,285.234 349.984,285.032 350.335 C 284.829 350.686,283.957 351.699,283.094 352.587 C 282.231 353.474,280.686 355.280,279.662 356.600 C 276.969 360.070,276.565 360.400,275.000 360.400 C 273.716 360.400,272.016 359.327,271.991 358.500 C 271.982 358.223,271.195 357.291,267.854 353.600 C 267.157 352.830,265.870 351.300,264.993 350.201 C 264.117 349.101,263.220 348.007,263.000 347.769 C 261.727 346.393,256.199 339.870,253.078 336.059 C 251.801 334.499,248.950 331.179,247.400 329.446 C 247.180 329.200,246.289 328.114,245.419 327.033 C 244.550 325.952,243.238 324.423,242.503 323.634 C 241.769 322.845,240.771 321.684,240.284 321.054 C 239.798 320.423,238.135 318.443,236.589 316.654 C 235.042 314.864,233.122 312.590,232.322 311.600 C 231.522 310.610,230.357 309.248,229.734 308.573 C 229.110 307.898,227.970 306.556,227.200 305.592 C 226.430 304.628,225.286 303.246,224.659 302.520 L 223.517 301.200 240.544 301.200 C 256.970 301.200,257.586 301.173,257.986 300.426 C 258.261 299.913,258.400 289.559,258.400 269.626 L 258.400 239.600 275.000 239.600 L 291.600 239.600 291.600 269.626 M205.600 302.567 C 205.600 304.114,207.051 307.210,208.616 309.000 L 209.665 310.200 144.369 310.301 L 79.074 310.402 77.937 309.129 C 76.881 307.946,76.800 307.619,76.800 304.528 L 76.800 301.200 141.200 301.200 L 205.600 301.200 205.600 302.567 " stroke="none" fill="#4c94e4" fill-rule="evenodd"></path></g></svg>